<?xml version="1.0" encoding="UTF-8"?>
<svg xmlns="http://www.w3.org/2000/svg" xmlns:xlink="http://www.w3.org/1999/xlink" width="200px" height="120px" viewBox="0 0 200 120" version="1.1">
<g id="surface1">
<rect x="0" y="0" width="200" height="120" style="fill:rgb(100%,100%,100%);fill-opacity:1;stroke:none;"/>
<path style=" stroke:none;fill-rule:nonzero;fill:rgb(73.72549%,96.470588%,92.156863%);fill-opacity:1;" d="M 3.75 1 L 117.082031 1 L 117.082031 103 L 3.75 103 Z M 3.75 1 "/>
<path style=" stroke:none;fill-rule:nonzero;fill:rgb(34.509804%,75.686275%,63.529412%);fill-opacity:1;" d="M 33.214844 11.539062 L 87.617188 11.539062 L 87.617188 16.980469 L 33.214844 16.980469 Z M 33.214844 11.539062 "/>
<path style=" stroke:none;fill-rule:nonzero;fill:rgb(34.509804%,75.686275%,63.529412%);fill-opacity:1;" d="M 24.582031 22 L 96.25 22 L 96.25 23.5 L 24.582031 23.5 Z M 24.582031 22 "/>
<path style=" stroke:none;fill-rule:nonzero;fill:rgb(34.509804%,75.686275%,63.529412%);fill-opacity:1;" d="M 24.582031 24.75 L 96.25 24.75 L 96.25 26.25 L 24.582031 26.25 Z M 24.582031 24.75 "/>
<path style=" stroke:none;fill-rule:nonzero;fill:rgb(34.509804%,75.686275%,63.529412%);fill-opacity:1;" d="M 42.917969 37 L 96.25 37 L 96.25 39.75 L 42.917969 39.75 Z M 42.917969 37 "/>
<path style="fill:none;stroke-width:4.98667;stroke-linecap:square;stroke-linejoin:miter;stroke:rgb(25.490196%,0%,98.039216%);stroke-opacity:1;stroke-miterlimit:4;" d="M 51.957813 139.161458 L 58.832813 147.039062 L 71.903906 132.071615 " transform="matrix(0.454545,0,0,0.272727,0,0)"/>
<path style=" stroke:none;fill-rule:nonzero;fill:rgb(34.509804%,75.686275%,63.529412%);fill-opacity:1;" d="M 42.917969 46.5 L 96.25 46.5 L 96.25 49.25 L 42.917969 49.25 Z M 42.917969 46.5 "/>
<path style="fill:none;stroke-width:4.98667;stroke-linecap:square;stroke-linejoin:miter;stroke:rgb(25.490196%,0%,98.039216%);stroke-opacity:1;stroke-miterlimit:4;" d="M 51.957813 174.066406 L 58.832813 181.94401 L 71.903906 166.976562 " transform="matrix(0.454545,0,0,0.272727,0,0)"/>
<path style=" stroke:none;fill-rule:nonzero;fill:rgb(34.509804%,75.686275%,63.529412%);fill-opacity:1;" d="M 42.917969 56 L 96.25 56 L 96.25 58.75 L 42.917969 58.75 Z M 42.917969 56 "/>
<path style="fill:none;stroke-width:4.98667;stroke-linecap:square;stroke-linejoin:miter;stroke:rgb(25.490196%,0%,98.039216%);stroke-opacity:1;stroke-miterlimit:4;" d="M 51.957813 208.971354 L 58.832813 216.848958 L 71.903906 201.88151 " transform="matrix(0.454545,0,0,0.272727,0,0)"/>
<path style=" stroke:none;fill-rule:nonzero;fill:rgb(34.509804%,75.686275%,63.529412%);fill-opacity:1;" d="M 42.917969 65.5 L 96.25 65.5 L 96.25 68.25 L 42.917969 68.25 Z M 42.917969 65.5 "/>
<path style="fill:none;stroke-width:4.98667;stroke-linecap:square;stroke-linejoin:miter;stroke:rgb(25.490196%,0%,98.039216%);stroke-opacity:1;stroke-miterlimit:4;" d="M 51.957813 243.876302 L 58.832813 251.753906 L 71.903906 236.786458 " transform="matrix(0.454545,0,0,0.272727,0,0)"/>
<path style=" stroke:none;fill-rule:nonzero;fill:rgb(34.509804%,75.686275%,63.529412%);fill-opacity:1;" d="M 42.917969 75 L 96.25 75 L 96.25 77.75 L 42.917969 77.75 Z M 42.917969 75 "/>
<path style="fill:none;stroke-width:4.98667;stroke-linecap:square;stroke-linejoin:miter;stroke:rgb(25.490196%,0%,98.039216%);stroke-opacity:1;stroke-miterlimit:4;" d="M 51.957813 278.78125 L 58.832813 286.658854 L 71.903906 271.705729 " transform="matrix(0.454545,0,0,0.272727,0,0)"/>
<path style=" stroke:none;fill-rule:nonzero;fill:rgb(34.509804%,75.686275%,63.529412%);fill-opacity:1;" d="M 42.917969 84.75 L 96.25 84.75 L 96.25 87.25 L 42.917969 87.25 Z M 42.917969 84.75 "/>
<path style="fill:none;stroke-width:4.98667;stroke-linecap:square;stroke-linejoin:miter;stroke:rgb(25.490196%,0%,98.039216%);stroke-opacity:1;stroke-miterlimit:4;" d="M 51.957813 313.686198 L 58.832813 321.563802 L 71.903906 306.610677 " transform="matrix(0.454545,0,0,0.272727,0,0)"/>
<path style=" stroke:none;fill-rule:nonzero;fill:rgb(31.372549%,23.921569%,8.627451%);fill-opacity:1;" d="M 131 100.46875 C 127.859375 100.46875 122.5625 101.453125 122.5625 102.394531 C 122.5625 103.335938 124.78125 102.898438 127.921875 102.898438 C 131.0625 102.898438 134.050781 103.214844 134.050781 102.269531 C 134.050781 101.328125 134.140625 100.46875 131 100.46875 Z M 131 100.46875 "/>
<path style=" stroke:none;fill-rule:nonzero;fill:rgb(0%,0%,0%);fill-opacity:1;" d="M 138.613281 87.359375 C 140.402344 86.238281 140.332031 84.457031 138.460938 83.382812 C 136.589844 82.308594 133.621094 82.347656 131.832031 83.472656 Z M 125.140625 91.746094 L 121.75 89.800781 C 120.582031 90.535156 120.164062 91.589844 120.652344 92.558594 Z M 124.050781 99.3125 L 125.40625 102.003906 L 134.382812 100.378906 L 133.027344 97.683594 Z M 131.832031 83.472656 L 121.75 89.800781 L 128.53125 93.691406 L 138.613281 87.359375 Z M 120.652344 92.558594 L 124.050781 99.3125 L 133.027344 97.683594 L 129.628906 90.933594 Z M 120.652344 92.558594 "/>
<path style=" stroke:none;fill-rule:nonzero;fill:rgb(31.372549%,23.921569%,8.627451%);fill-opacity:1;" d="M 161.769531 99.824219 C 158.734375 100.3125 154.039062 102.085938 154.445312 102.996094 C 154.851562 103.90625 156.808594 103.140625 159.84375 102.652344 C 162.875 102.164062 165.894531 102.003906 165.488281 101.09375 C 165.082031 100.183594 164.800781 99.339844 161.769531 99.824219 Z M 161.769531 99.824219 "/>
<path style=" stroke:none;fill-rule:nonzero;fill:rgb(0%,0%,0%);fill-opacity:1;" d="M 149.9375 82.394531 C 149.574219 80.855469 147.203125 79.785156 144.640625 80 C 142.074219 80.214844 140.289062 81.640625 140.648438 83.175781 Z M 147.453125 92.003906 L 142.808594 92.398438 C 142.960938 93.035156 143.46875 93.621094 144.25 94.058594 Z M 155.453125 100.351562 L 158.878906 102.273438 L 165.285156 98.164062 L 161.863281 96.242188 Z M 140.648438 83.175781 L 142.808594 92.398438 L 152.097656 91.613281 L 149.9375 82.394531 Z M 144.25 94.058594 L 155.453125 100.351562 L 161.863281 96.242188 L 150.65625 89.953125 Z M 144.25 94.058594 "/>
<path style=" stroke:none;fill-rule:nonzero;fill:rgb(0%,0%,0%);fill-opacity:1;" d="M 136.265625 73.917969 C 141.265625 73.113281 146.410156 74.894531 147.75 77.898438 L 149.023438 80.75 C 150.363281 83.753906 147.394531 86.835938 142.394531 87.640625 C 137.390625 88.445312 132.246094 86.664062 130.90625 83.664062 L 129.632812 80.808594 C 128.292969 77.808594 131.261719 74.722656 136.265625 73.917969 Z M 136.265625 73.917969 "/>
<path style=" stroke:none;fill-rule:nonzero;fill:rgb(25.490196%,0%,98.039216%);fill-opacity:1;" d="M 123.617188 69.230469 C 123.421875 68.78125 123.875 68.320312 124.625 68.203125 L 141.871094 65.511719 C 142.621094 65.394531 143.390625 65.664062 143.585938 66.117188 L 149.960938 80.820312 C 150.15625 81.269531 149.703125 81.730469 148.953125 81.847656 L 131.707031 84.539062 C 130.957031 84.65625 130.1875 84.386719 129.992188 83.9375 Z M 123.617188 69.230469 "/>
<path style=" stroke:none;fill-rule:nonzero;fill:rgb(98.823529%,80.392157%,76.470588%);fill-opacity:1;" d="M 137.859375 61.316406 C 138.769531 63.421875 136.664062 65.570312 133.15625 66.117188 C 129.648438 66.664062 126.0625 65.402344 125.152344 63.296875 C 124.238281 61.191406 126.34375 59.042969 129.851562 58.496094 C 133.359375 57.945312 136.945312 59.210938 137.859375 61.316406 Z M 137.859375 61.316406 "/>
<path style=" stroke:none;fill-rule:nonzero;fill:rgb(31.372549%,23.921569%,8.627451%);fill-opacity:1;" d="M 133.679688 58.777344 C 133.253906 57.796875 130.917969 57.308594 128.464844 57.695312 C 126.007812 58.078125 124.363281 59.183594 124.789062 60.164062 C 125.214844 61.148438 127.550781 61.632812 130.003906 61.25 C 132.460938 60.867188 134.105469 59.761719 133.679688 58.777344 Z M 133.679688 58.777344 "/>
<path style=" stroke:none;fill-rule:nonzero;fill:rgb(31.372549%,23.921569%,8.627451%);fill-opacity:1;" d="M 137.355469 60.0625 C 137.636719 59.449219 136.542969 58.730469 134.910156 58.460938 C 133.277344 58.191406 131.726562 58.472656 131.445312 59.085938 C 131.164062 59.699219 132.257812 60.417969 133.886719 60.6875 C 135.519531 60.957031 137.070312 60.679688 137.355469 60.0625 Z M 137.355469 60.0625 "/>
<path style=" stroke:none;fill-rule:nonzero;fill:rgb(98.823529%,80.392157%,76.470588%);fill-opacity:1;" d="M 132.382812 64.082031 C 133.890625 63.859375 135.414062 64.414062 135.785156 65.320312 L 136.230469 66.414062 C 136.601562 67.320312 135.679688 68.234375 134.167969 68.453125 C 132.660156 68.675781 131.136719 68.125 130.765625 67.21875 L 130.320312 66.125 C 129.949219 65.21875 130.871094 64.304688 132.382812 64.082031 Z M 132.382812 64.082031 "/>
<path style=" stroke:none;fill-rule:nonzero;fill:rgb(25.490196%,0%,98.039216%);fill-opacity:1;" d="M 129.378906 71.4375 C 131.089844 71.167969 132.113281 70.117188 131.660156 69.09375 C 131.210938 68.066406 129.460938 67.453125 127.75 67.722656 Z M 117.042969 70.925781 L 116.640625 69.019531 Z M 102.15625 70.066406 L 98.964844 70.210938 L 99.441406 74.039062 L 102.632812 73.898438 Z M 127.75 67.722656 C 124.773438 68.195312 122.761719 68.554688 116.640625 69.019531 L 117.445312 72.832031 C 123.964844 72.335938 126.277344 71.929688 129.378906 71.4375 Z M 116.640625 69.019531 C 110.269531 69.503906 107.414062 69.832031 102.15625 70.066406 L 102.632812 73.898438 C 108.101562 73.652344 111.382812 73.292969 117.445312 72.832031 Z M 116.640625 69.019531 "/>
<path style=" stroke:none;fill-rule:nonzero;fill:rgb(98.823529%,80.392157%,76.470588%);fill-opacity:1;" d="M 98.875 70.445312 C 100.996094 70.445312 102.714844 71.476562 102.714844 72.75 C 102.714844 74.023438 100.996094 75.054688 98.875 75.054688 C 96.753906 75.054688 95.03125 74.023438 95.03125 72.75 C 95.03125 71.476562 96.753906 70.445312 98.875 70.445312 Z M 98.875 70.445312 "/>
<path style=" stroke:none;fill-rule:nonzero;fill:rgb(94.901961%,52.156863%,96.078431%);fill-opacity:1;" d="M 87.578125 68.125 C 88.402344 66.28125 91.558594 65.1875 94.632812 65.683594 L 170.082031 77.8125 C 173.15625 78.304688 174.980469 80.203125 174.15625 82.046875 C 173.332031 83.890625 170.171875 84.984375 167.097656 84.492188 L 91.652344 72.359375 C 88.578125 71.867188 86.753906 69.972656 87.578125 68.125 Z M 87.578125 68.125 "/>
<path style=" stroke:none;fill-rule:evenodd;fill:rgb(100%,78.431373%,39.215686%);fill-opacity:1;" d="M 90.570312 72.1875 C 92.019531 72.421875 93.863281 71.113281 94.6875 69.269531 C 95.511719 67.425781 95.003906 65.742188 93.550781 65.507812 C 93.503906 65.5 93.453125 65.492188 93.402344 65.488281 C 93.378906 65.480469 93.351562 65.476562 93.324219 65.472656 C 93.269531 65.460938 93.214844 65.460938 93.160156 65.464844 L 81.007812 66.617188 C 80.320312 66.679688 80.089844 67.203125 80.628906 67.464844 L 90.195312 72.105469 C 90.238281 72.125 90.289062 72.140625 90.339844 72.148438 C 90.367188 72.15625 90.398438 72.15625 90.425781 72.15625 C 90.472656 72.167969 90.519531 72.179688 90.570312 72.1875 Z M 90.570312 72.1875 "/>
<path style=" stroke:none;fill-rule:evenodd;fill:rgb(25.490196%,0%,98.039216%);fill-opacity:1;" d="M 83.007812 68.617188 L 80.628906 67.464844 C 80.089844 67.203125 80.320312 66.679688 81.007812 66.617188 L 84.027344 66.332031 C 84.300781 66.710938 84.367188 67.148438 84.175781 67.578125 C 83.980469 68.011719 83.558594 68.371094 83.007812 68.617188 Z M 83.007812 68.617188 "/>
<path style=" stroke:none;fill-rule:nonzero;fill:rgb(98.823529%,80.392157%,76.470588%);fill-opacity:1;" d="M 159.871094 80.703125 C 160.707031 81.488281 160.324219 82.53125 159.015625 83.035156 C 157.707031 83.535156 155.964844 83.304688 155.128906 82.519531 C 154.292969 81.734375 154.675781 80.691406 155.988281 80.1875 C 157.296875 79.6875 159.035156 79.917969 159.871094 80.703125 Z M 159.871094 80.703125 "/>
<path style=" stroke:none;fill-rule:nonzero;fill:rgb(25.490196%,0%,98.039216%);fill-opacity:1;" d="M 139.957031 65.789062 C 138.28125 66.125 137.375 67.214844 137.933594 68.21875 C 138.492188 69.226562 140.304688 69.769531 141.984375 69.433594 Z M 155.648438 78.675781 L 154.804688 80.53125 L 160.980469 81.542969 L 161.824219 79.691406 Z M 141.984375 69.433594 C 143.59375 69.113281 145.804688 69.269531 148.183594 69.839844 C 150.539062 70.40625 152.460938 71.234375 153.28125 71.757812 L 157.953125 69.132812 C 156.371094 68.121094 153.609375 67.003906 150.5625 66.273438 C 147.542969 65.546875 143.632812 65.054688 139.957031 65.789062 Z M 153.28125 71.757812 C 155.042969 72.886719 157.152344 75.386719 155.648438 78.675781 L 161.824219 79.691406 C 164.003906 74.914062 160.988281 71.074219 157.953125 69.132812 Z M 153.28125 71.757812 "/>
</g>
</svg>
